<?xml version='1.0' encoding='UTF-8'?>
<svg width="53mm" height="53mm" version="1.1" xmlns="http://www.w3.org/2000/svg"><rect x="6mm" y="6mm" width="1mm" height="1mm" /><rect x="7mm" y="6mm" width="1mm" height="1mm" /><rect x="8mm" y="6mm" width="1mm" height="1mm" /><rect x="9mm" y="6mm" width="1mm" height="1mm" /><rect x="10mm" y="6mm" width="1mm" height="1mm" /><rect x="11mm" y="6mm" width="1mm" height="1mm" /><rect x="12mm" y="6mm" width="1mm" height="1mm" /><rect x="15mm" y="6mm" width="1mm" height="1mm" /><rect x="16mm" y="6mm" width="1mm" height="1mm" /><rect x="21mm" y="6mm" width="1mm" height="1mm" /><rect x="22mm" y="6mm" width="1mm" height="1mm" /><rect x="26mm" y="6mm" width="1mm" height="1mm" /><rect x="28mm" y="6mm" width="1mm" height="1mm" /><rect x="32mm" y="6mm" width="1mm" height="1mm" /><rect x="33mm" y="6mm" width="1mm" height="1mm" /><rect x="36mm" y="6mm" width="1mm" height="1mm" /><rect x="38mm" y="6mm" width="1mm" height="1mm" /><rect x="40mm" y="6mm" width="1mm" height="1mm" /><rect x="41mm" y="6mm" width="1mm" height="1mm" /><rect x="42mm" y="6mm" width="1mm" height="1mm" /><rect x="43mm" y="6mm" width="1mm" height="1mm" /><rect x="44mm" y="6mm" width="1mm" height="1mm" /><rect x="45mm" y="6mm" width="1mm" height="1mm" /><rect x="46mm" y="6mm" width="1mm" height="1mm" /><rect x="6mm" y="7mm" width="1mm" height="1mm" /><rect x="12mm" y="7mm" width="1mm" height="1mm" /><rect x="15mm" y="7mm" width="1mm" height="1mm" /><rect x="16mm" y="7mm" width="1mm" height="1mm" /><rect x="17mm" y="7mm" width="1mm" height="1mm" /><rect x="19mm" y="7mm" width="1mm" height="1mm" /><rect x="20mm" y="7mm" width="1mm" height="1mm" /><rect x="22mm" y="7mm" width="1mm" height="1mm" /><rect x="27mm" y="7mm" width="1mm" height="1mm" /><rect x="28mm" y="7mm" width="1mm" height="1mm" /><rect x="30mm" y="7mm" width="1mm" height="1mm" /><rect x="31mm" y="7mm" width="1mm" height="1mm" /><rect x="32mm" y="7mm" width="1mm" height="1mm" /><rect x="37mm" y="7mm" width="1mm" height="1mm" /><rect x="38mm" y="7mm" width="1mm" height="1mm" /><rect x="40mm" y="7mm" width="1mm" height="1mm" /><rect x="46mm" y="7mm" width="1mm" height="1mm" /><rect x="6mm" y="8mm" width="1mm" height="1mm" /><rect x="8mm" y="8mm" width="1mm" height="1mm" /><rect x="9mm" y="8mm" width="1mm" height="1mm" /><rect x="10mm" y="8mm" width="1mm" height="1mm" /><rect x="12mm" y="8mm" width="1mm" height="1mm" /><rect x="14mm" y="8mm" width="1mm" height="1mm" /><rect x="15mm" y="8mm" width="1mm" height="1mm" /><rect x="18mm" y="8mm" width="1mm" height="1mm" /><rect x="19mm" y="8mm" width="1mm" height="1mm" /><rect x="23mm" y="8mm" width="1mm" height="1mm" /><rect x="24mm" y="8mm" width="1mm" height="1mm" /><rect x="28mm" y="8mm" width="1mm" height="1mm" /><rect x="30mm" y="8mm" width="1mm" height="1mm" /><rect x="32mm" y="8mm" width="1mm" height="1mm" /><rect x="33mm" y="8mm" width="1mm" height="1mm" /><rect x="35mm" y="8mm" width="1mm" height="1mm" /><rect x="36mm" y="8mm" width="1mm" height="1mm" /><rect x="40mm" y="8mm" width="1mm" height="1mm" /><rect x="42mm" y="8mm" width="1mm" height="1mm" /><rect x="43mm" y="8mm" width="1mm" height="1mm" /><rect x="44mm" y="8mm" width="1mm" height="1mm" /><rect x="46mm" y="8mm" width="1mm" height="1mm" /><rect x="6mm" y="9mm" width="1mm" height="1mm" /><rect x="8mm" y="9mm" width="1mm" height="1mm" /><rect x="9mm" y="9mm" width="1mm" height="1mm" /><rect x="10mm" y="9mm" width="1mm" height="1mm" /><rect x="12mm" y="9mm" width="1mm" height="1mm" /><rect x="16mm" y="9mm" width="1mm" height="1mm" /><rect x="17mm" y="9mm" width="1mm" height="1mm" /><rect x="19mm" y="9mm" width="1mm" height="1mm" /><rect x="21mm" y="9mm" width="1mm" height="1mm" /><rect x="23mm" y="9mm" width="1mm" height="1mm" /><rect x="27mm" y="9mm" width="1mm" height="1mm" /><rect x="28mm" y="9mm" width="1mm" height="1mm" /><rect x="29mm" y="9mm" width="1mm" height="1mm" /><rect x="31mm" y="9mm" width="1mm" height="1mm" /><rect x="32mm" y="9mm" width="1mm" height="1mm" /><rect x="33mm" y="9mm" width="1mm" height="1mm" /><rect x="34mm" y="9mm" width="1mm" height="1mm" /><rect x="38mm" y="9mm" width="1mm" height="1mm" /><rect x="40mm" y="9mm" width="1mm" height="1mm" /><rect x="42mm" y="9mm" width="1mm" height="1mm" /><rect x="43mm" y="9mm" width="1mm" height="1mm" /><rect x="44mm" y="9mm" width="1mm" height="1mm" /><rect x="46mm" y="9mm" width="1mm" height="1mm" /><rect x="6mm" y="10mm" width="1mm" height="1mm" /><rect x="8mm" y="10mm" width="1mm" height="1mm" /><rect x="9mm" y="10mm" width="1mm" height="1mm" /><rect x="10mm" y="10mm" width="1mm" height="1mm" /><rect x="12mm" y="10mm" width="1mm" height="1mm" /><rect x="14mm" y="10mm" width="1mm" height="1mm" /><rect x="16mm" y="10mm" width="1mm" height="1mm" /><rect x="17mm" y="10mm" width="1mm" height="1mm" /><rect x="19mm" y="10mm" width="1mm" height="1mm" /><rect x="20mm" y="10mm" width="1mm" height="1mm" /><rect x="21mm" y="10mm" width="1mm" height="1mm" /><rect x="26mm" y="10mm" width="1mm" height="1mm" /><rect x="29mm" y="10mm" width="1mm" height="1mm" /><rect x="32mm" y="10mm" width="1mm" height="1mm" /><rect x="33mm" y="10mm" width="1mm" height="1mm" /><rect x="34mm" y="10mm" width="1mm" height="1mm" /><rect x="35mm" y="10mm" width="1mm" height="1mm" /><rect x="38mm" y="10mm" width="1mm" height="1mm" /><rect x="40mm" y="10mm" width="1mm" height="1mm" /><rect x="42mm" y="10mm" width="1mm" height="1mm" /><rect x="43mm" y="10mm" width="1mm" height="1mm" /><rect x="44mm" y="10mm" width="1mm" height="1mm" /><rect x="46mm" y="10mm" width="1mm" height="1mm" /><rect x="6mm" y="11mm" width="1mm" height="1mm" /><rect x="12mm" y="11mm" width="1mm" height="1mm" /><rect x="14mm" y="11mm" width="1mm" height="1mm" /><rect x="15mm" y="11mm" width="1mm" height="1mm" /><rect x="17mm" y="11mm" width="1mm" height="1mm" /><rect x="19mm" y="11mm" width="1mm" height="1mm" /><rect x="24mm" y="11mm" width="1mm" height="1mm" /><rect x="25mm" y="11mm" width="1mm" height="1mm" /><rect x="26mm" y="11mm" width="1mm" height="1mm" /><rect x="28mm" y="11mm" width="1mm" height="1mm" /><rect x="29mm" y="11mm" width="1mm" height="1mm" /><rect x="30mm" y="11mm" width="1mm" height="1mm" /><rect x="35mm" y="11mm" width="1mm" height="1mm" /><rect x="37mm" y="11mm" width="1mm" height="1mm" /><rect x="38mm" y="11mm" width="1mm" height="1mm" /><rect x="40mm" y="11mm" width="1mm" height="1mm" /><rect x="46mm" y="11mm" width="1mm" height="1mm" /><rect x="6mm" y="12mm" width="1mm" height="1mm" /><rect x="7mm" y="12mm" width="1mm" height="1mm" /><rect x="8mm" y="12mm" width="1mm" height="1mm" /><rect x="9mm" y="12mm" width="1mm" height="1mm" /><rect x="10mm" y="12mm" width="1mm" height="1mm" /><rect x="11mm" y="12mm" width="1mm" height="1mm" /><rect x="12mm" y="12mm" width="1mm" height="1mm" /><rect x="14mm" y="12mm" width="1mm" height="1mm" /><rect x="16mm" y="12mm" width="1mm" height="1mm" /><rect x="18mm" y="12mm" width="1mm" height="1mm" /><rect x="20mm" y="12mm" width="1mm" height="1mm" /><rect x="22mm" y="12mm" width="1mm" height="1mm" /><rect x="24mm" y="12mm" width="1mm" height="1mm" /><rect x="26mm" y="12mm" width="1mm" height="1mm" /><rect x="28mm" y="12mm" width="1mm" height="1mm" /><rect x="30mm" y="12mm" width="1mm" height="1mm" /><rect x="32mm" y="12mm" width="1mm" height="1mm" /><rect x="34mm" y="12mm" width="1mm" height="1mm" /><rect x="36mm" y="12mm" width="1mm" height="1mm" /><rect x="38mm" y="12mm" width="1mm" height="1mm" /><rect x="40mm" y="12mm" width="1mm" height="1mm" /><rect x="41mm" y="12mm" width="1mm" height="1mm" /><rect x="42mm" y="12mm" width="1mm" height="1mm" /><rect x="43mm" y="12mm" width="1mm" height="1mm" /><rect x="44mm" y="12mm" width="1mm" height="1mm" /><rect x="45mm" y="12mm" width="1mm" height="1mm" /><rect x="46mm" y="12mm" width="1mm" height="1mm" /><rect x="18mm" y="13mm" width="1mm" height="1mm" /><rect x="22mm" y="13mm" width="1mm" height="1mm" /><rect x="24mm" y="13mm" width="1mm" height="1mm" /><rect x="26mm" y="13mm" width="1mm" height="1mm" /><rect x="27mm" y="13mm" width="1mm" height="1mm" /><rect x="28mm" y="13mm" width="1mm" height="1mm" /><rect x="29mm" y="13mm" width="1mm" height="1mm" /><rect x="30mm" y="13mm" width="1mm" height="1mm" /><rect x="32mm" y="13mm" width="1mm" height="1mm" /><rect x="33mm" y="13mm" width="1mm" height="1mm" /><rect x="35mm" y="13mm" width="1mm" height="1mm" /><rect x="36mm" y="13mm" width="1mm" height="1mm" /><rect x="37mm" y="13mm" width="1mm" height="1mm" /><rect x="38mm" y="13mm" width="1mm" height="1mm" /><rect x="7mm" y="14mm" width="1mm" height="1mm" /><rect x="10mm" y="14mm" width="1mm" height="1mm" /><rect x="12mm" y="14mm" width="1mm" height="1mm" /><rect x="14mm" y="14mm" width="1mm" height="1mm" /><rect x="17mm" y="14mm" width="1mm" height="1mm" /><rect x="19mm" y="14mm" width="1mm" height="1mm" /><rect x="20mm" y="14mm" width="1mm" height="1mm" /><rect x="21mm" y="14mm" width="1mm" height="1mm" /><rect x="22mm" y="14mm" width="1mm" height="1mm" /><rect x="24mm" y="14mm" width="1mm" height="1mm" /><rect x="25mm" y="14mm" width="1mm" height="1mm" /><rect x="26mm" y="14mm" width="1mm" height="1mm" /><rect x="28mm" y="14mm" width="1mm" height="1mm" /><rect x="29mm" y="14mm" width="1mm" height="1mm" /><rect x="30mm" y="14mm" width="1mm" height="1mm" /><rect x="35mm" y="14mm" width="1mm" height="1mm" /><rect x="37mm" y="14mm" width="1mm" height="1mm" /><rect x="38mm" y="14mm" width="1mm" height="1mm" /><rect x="39mm" y="14mm" width="1mm" height="1mm" /><rect x="41mm" y="14mm" width="1mm" height="1mm" /><rect x="42mm" y="14mm" width="1mm" height="1mm" /><rect x="44mm" y="14mm" width="1mm" height="1mm" /><rect x="6mm" y="15mm" width="1mm" height="1mm" /><rect x="7mm" y="15mm" width="1mm" height="1mm" /><rect x="8mm" y="15mm" width="1mm" height="1mm" /><rect x="11mm" y="15mm" width="1mm" height="1mm" /><rect x="13mm" y="15mm" width="1mm" height="1mm" /><rect x="15mm" y="15mm" width="1mm" height="1mm" /><rect x="19mm" y="15mm" width="1mm" height="1mm" /><rect x="22mm" y="15mm" width="1mm" height="1mm" /><rect x="23mm" y="15mm" width="1mm" height="1mm" /><rect x="25mm" y="15mm" width="1mm" height="1mm" /><rect x="26mm" y="15mm" width="1mm" height="1mm" /><rect x="33mm" y="15mm" width="1mm" height="1mm" /><rect x="34mm" y="15mm" width="1mm" height="1mm" /><rect x="36mm" y="15mm" width="1mm" height="1mm" /><rect x="39mm" y="15mm" width="1mm" height="1mm" /><rect x="40mm" y="15mm" width="1mm" height="1mm" /><rect x="42mm" y="15mm" width="1mm" height="1mm" /><rect x="43mm" y="15mm" width="1mm" height="1mm" /><rect x="45mm" y="15mm" width="1mm" height="1mm" /><rect x="46mm" y="15mm" width="1mm" height="1mm" /><rect x="8mm" y="16mm" width="1mm" height="1mm" /><rect x="11mm" y="16mm" width="1mm" height="1mm" /><rect x="12mm" y="16mm" width="1mm" height="1mm" /><rect x="13mm" y="16mm" width="1mm" height="1mm" /><rect x="14mm" y="16mm" width="1mm" height="1mm" /><rect x="22mm" y="16mm" width="1mm" height="1mm" /><rect x="25mm" y="16mm" width="1mm" height="1mm" /><rect x="26mm" y="16mm" width="1mm" height="1mm" /><rect x="28mm" y="16mm" width="1mm" height="1mm" /><rect x="30mm" y="16mm" width="1mm" height="1mm" /><rect x="33mm" y="16mm" width="1mm" height="1mm" /><rect x="34mm" y="16mm" width="1mm" height="1mm" /><rect x="35mm" y="16mm" width="1mm" height="1mm" /><rect x="39mm" y="16mm" width="1mm" height="1mm" /><rect x="40mm" y="16mm" width="1mm" height="1mm" /><rect x="45mm" y="16mm" width="1mm" height="1mm" /><rect x="46mm" y="16mm" width="1mm" height="1mm" /><rect x="9mm" y="17mm" width="1mm" height="1mm" /><rect x="10mm" y="17mm" width="1mm" height="1mm" /><rect x="11mm" y="17mm" width="1mm" height="1mm" /><rect x="13mm" y="17mm" width="1mm" height="1mm" /><rect x="14mm" y="17mm" width="1mm" height="1mm" /><rect x="15mm" y="17mm" width="1mm" height="1mm" /><rect x="21mm" y="17mm" width="1mm" height="1mm" /><rect x="23mm" y="17mm" width="1mm" height="1mm" /><rect x="25mm" y="17mm" width="1mm" height="1mm" /><rect x="26mm" y="17mm" width="1mm" height="1mm" /><rect x="28mm" y="17mm" width="1mm" height="1mm" /><rect x="32mm" y="17mm" width="1mm" height="1mm" /><rect x="33mm" y="17mm" width="1mm" height="1mm" /><rect x="34mm" y="17mm" width="1mm" height="1mm" /><rect x="35mm" y="17mm" width="1mm" height="1mm" /><rect x="36mm" y="17mm" width="1mm" height="1mm" /><rect x="38mm" y="17mm" width="1mm" height="1mm" /><rect x="39mm" y="17mm" width="1mm" height="1mm" /><rect x="41mm" y="17mm" width="1mm" height="1mm" /><rect x="43mm" y="17mm" width="1mm" height="1mm" /><rect x="46mm" y="17mm" width="1mm" height="1mm" /><rect x="8mm" y="18mm" width="1mm" height="1mm" /><rect x="9mm" y="18mm" width="1mm" height="1mm" /><rect x="11mm" y="18mm" width="1mm" height="1mm" /><rect x="12mm" y="18mm" width="1mm" height="1mm" /><rect x="13mm" y="18mm" width="1mm" height="1mm" /><rect x="15mm" y="18mm" width="1mm" height="1mm" /><rect x="18mm" y="18mm" width="1mm" height="1mm" /><rect x="19mm" y="18mm" width="1mm" height="1mm" /><rect x="21mm" y="18mm" width="1mm" height="1mm" /><rect x="23mm" y="18mm" width="1mm" height="1mm" /><rect x="24mm" y="18mm" width="1mm" height="1mm" /><rect x="29mm" y="18mm" width="1mm" height="1mm" /><rect x="30mm" y="18mm" width="1mm" height="1mm" /><rect x="33mm" y="18mm" width="1mm" height="1mm" /><rect x="34mm" y="18mm" width="1mm" height="1mm" /><rect x="35mm" y="18mm" width="1mm" height="1mm" /><rect x="36mm" y="18mm" width="1mm" height="1mm" /><rect x="41mm" y="18mm" width="1mm" height="1mm" /><rect x="45mm" y="18mm" width="1mm" height="1mm" /><rect x="46mm" y="18mm" width="1mm" height="1mm" /><rect x="10mm" y="19mm" width="1mm" height="1mm" /><rect x="11mm" y="19mm" width="1mm" height="1mm" /><rect x="15mm" y="19mm" width="1mm" height="1mm" /><rect x="18mm" y="19mm" width="1mm" height="1mm" /><rect x="25mm" y="19mm" width="1mm" height="1mm" /><rect x="27mm" y="19mm" width="1mm" height="1mm" /><rect x="28mm" y="19mm" width="1mm" height="1mm" /><rect x="30mm" y="19mm" width="1mm" height="1mm" /><rect x="33mm" y="19mm" width="1mm" height="1mm" /><rect x="35mm" y="19mm" width="1mm" height="1mm" /><rect x="36mm" y="19mm" width="1mm" height="1mm" /><rect x="38mm" y="19mm" width="1mm" height="1mm" /><rect x="40mm" y="19mm" width="1mm" height="1mm" /><rect x="41mm" y="19mm" width="1mm" height="1mm" /><rect x="42mm" y="19mm" width="1mm" height="1mm" /><rect x="43mm" y="19mm" width="1mm" height="1mm" /><rect x="44mm" y="19mm" width="1mm" height="1mm" /><rect x="45mm" y="19mm" width="1mm" height="1mm" /><rect x="46mm" y="19mm" width="1mm" height="1mm" /><rect x="9mm" y="20mm" width="1mm" height="1mm" /><rect x="11mm" y="20mm" width="1mm" height="1mm" /><rect x="12mm" y="20mm" width="1mm" height="1mm" /><rect x="14mm" y="20mm" width="1mm" height="1mm" /><rect x="16mm" y="20mm" width="1mm" height="1mm" /><rect x="17mm" y="20mm" width="1mm" height="1mm" /><rect x="18mm" y="20mm" width="1mm" height="1mm" /><rect x="20mm" y="20mm" width="1mm" height="1mm" /><rect x="22mm" y="20mm" width="1mm" height="1mm" /><rect x="24mm" y="20mm" width="1mm" height="1mm" /><rect x="25mm" y="20mm" width="1mm" height="1mm" /><rect x="29mm" y="20mm" width="1mm" height="1mm" /><rect x="32mm" y="20mm" width="1mm" height="1mm" /><rect x="33mm" y="20mm" width="1mm" height="1mm" /><rect x="34mm" y="20mm" width="1mm" height="1mm" /><rect x="35mm" y="20mm" width="1mm" height="1mm" /><rect x="36mm" y="20mm" width="1mm" height="1mm" /><rect x="38mm" y="20mm" width="1mm" height="1mm" /><rect x="39mm" y="20mm" width="1mm" height="1mm" /><rect x="45mm" y="20mm" width="1mm" height="1mm" /><rect x="46mm" y="20mm" width="1mm" height="1mm" /><rect x="8mm" y="21mm" width="1mm" height="1mm" /><rect x="10mm" y="21mm" width="1mm" height="1mm" /><rect x="16mm" y="21mm" width="1mm" height="1mm" /><rect x="19mm" y="21mm" width="1mm" height="1mm" /><rect x="22mm" y="21mm" width="1mm" height="1mm" /><rect x="23mm" y="21mm" width="1mm" height="1mm" /><rect x="26mm" y="21mm" width="1mm" height="1mm" /><rect x="27mm" y="21mm" width="1mm" height="1mm" /><rect x="28mm" y="21mm" width="1mm" height="1mm" /><rect x="29mm" y="21mm" width="1mm" height="1mm" /><rect x="32mm" y="21mm" width="1mm" height="1mm" /><rect x="34mm" y="21mm" width="1mm" height="1mm" /><rect x="35mm" y="21mm" width="1mm" height="1mm" /><rect x="36mm" y="21mm" width="1mm" height="1mm" /><rect x="39mm" y="21mm" width="1mm" height="1mm" /><rect x="41mm" y="21mm" width="1mm" height="1mm" /><rect x="7mm" y="22mm" width="1mm" height="1mm" /><rect x="8mm" y="22mm" width="1mm" height="1mm" /><rect x="11mm" y="22mm" width="1mm" height="1mm" /><rect x="12mm" y="22mm" width="1mm" height="1mm" /><rect x="13mm" y="22mm" width="1mm" height="1mm" /><rect x="15mm" y="22mm" width="1mm" height="1mm" /><rect x="18mm" y="22mm" width="1mm" height="1mm" /><rect x="19mm" y="22mm" width="1mm" height="1mm" /><rect x="21mm" y="22mm" width="1mm" height="1mm" /><rect x="23mm" y="22mm" width="1mm" height="1mm" /><rect x="24mm" y="22mm" width="1mm" height="1mm" /><rect x="27mm" y="22mm" width="1mm" height="1mm" /><rect x="28mm" y="22mm" width="1mm" height="1mm" /><rect x="29mm" y="22mm" width="1mm" height="1mm" /><rect x="32mm" y="22mm" width="1mm" height="1mm" /><rect x="35mm" y="22mm" width="1mm" height="1mm" /><rect x="36mm" y="22mm" width="1mm" height="1mm" /><rect x="37mm" y="22mm" width="1mm" height="1mm" /><rect x="41mm" y="22mm" width="1mm" height="1mm" /><rect x="45mm" y="22mm" width="1mm" height="1mm" /><rect x="46mm" y="22mm" width="1mm" height="1mm" /><rect x="9mm" y="23mm" width="1mm" height="1mm" /><rect x="10mm" y="23mm" width="1mm" height="1mm" /><rect x="11mm" y="23mm" width="1mm" height="1mm" /><rect x="13mm" y="23mm" width="1mm" height="1mm" /><rect x="15mm" y="23mm" width="1mm" height="1mm" /><rect x="17mm" y="23mm" width="1mm" height="1mm" /><rect x="19mm" y="23mm" width="1mm" height="1mm" /><rect x="20mm" y="23mm" width="1mm" height="1mm" /><rect x="25mm" y="23mm" width="1mm" height="1mm" /><rect x="26mm" y="23mm" width="1mm" height="1mm" /><rect x="27mm" y="23mm" width="1mm" height="1mm" /><rect x="28mm" y="23mm" width="1mm" height="1mm" /><rect x="29mm" y="23mm" width="1mm" height="1mm" /><rect x="30mm" y="23mm" width="1mm" height="1mm" /><rect x="31mm" y="23mm" width="1mm" height="1mm" /><rect x="33mm" y="23mm" width="1mm" height="1mm" /><rect x="34mm" y="23mm" width="1mm" height="1mm" /><rect x="35mm" y="23mm" width="1mm" height="1mm" /><rect x="38mm" y="23mm" width="1mm" height="1mm" /><rect x="40mm" y="23mm" width="1mm" height="1mm" /><rect x="42mm" y="23mm" width="1mm" height="1mm" /><rect x="43mm" y="23mm" width="1mm" height="1mm" /><rect x="44mm" y="23mm" width="1mm" height="1mm" /><rect x="45mm" y="23mm" width="1mm" height="1mm" /><rect x="46mm" y="23mm" width="1mm" height="1mm" /><rect x="6mm" y="24mm" width="1mm" height="1mm" /><rect x="9mm" y="24mm" width="1mm" height="1mm" /><rect x="11mm" y="24mm" width="1mm" height="1mm" /><rect x="12mm" y="24mm" width="1mm" height="1mm" /><rect x="16mm" y="24mm" width="1mm" height="1mm" /><rect x="17mm" y="24mm" width="1mm" height="1mm" /><rect x="20mm" y="24mm" width="1mm" height="1mm" /><rect x="22mm" y="24mm" width="1mm" height="1mm" /><rect x="28mm" y="24mm" width="1mm" height="1mm" /><rect x="29mm" y="24mm" width="1mm" height="1mm" /><rect x="30mm" y="24mm" width="1mm" height="1mm" /><rect x="32mm" y="24mm" width="1mm" height="1mm" /><rect x="33mm" y="24mm" width="1mm" height="1mm" /><rect x="34mm" y="24mm" width="1mm" height="1mm" /><rect x="35mm" y="24mm" width="1mm" height="1mm" /><rect x="39mm" y="24mm" width="1mm" height="1mm" /><rect x="40mm" y="24mm" width="1mm" height="1mm" /><rect x="41mm" y="24mm" width="1mm" height="1mm" /><rect x="43mm" y="24mm" width="1mm" height="1mm" /><rect x="45mm" y="24mm" width="1mm" height="1mm" /><rect x="46mm" y="24mm" width="1mm" height="1mm" /><rect x="6mm" y="25mm" width="1mm" height="1mm" /><rect x="9mm" y="25mm" width="1mm" height="1mm" /><rect x="10mm" y="25mm" width="1mm" height="1mm" /><rect x="11mm" y="25mm" width="1mm" height="1mm" /><rect x="15mm" y="25mm" width="1mm" height="1mm" /><rect x="18mm" y="25mm" width="1mm" height="1mm" /><rect x="20mm" y="25mm" width="1mm" height="1mm" /><rect x="21mm" y="25mm" width="1mm" height="1mm" /><rect x="22mm" y="25mm" width="1mm" height="1mm" /><rect x="27mm" y="25mm" width="1mm" height="1mm" /><rect x="33mm" y="25mm" width="1mm" height="1mm" /><rect x="34mm" y="25mm" width="1mm" height="1mm" /><rect x="35mm" y="25mm" width="1mm" height="1mm" /><rect x="38mm" y="25mm" width="1mm" height="1mm" /><rect x="39mm" y="25mm" width="1mm" height="1mm" /><rect x="40mm" y="25mm" width="1mm" height="1mm" /><rect x="41mm" y="25mm" width="1mm" height="1mm" /><rect x="43mm" y="25mm" width="1mm" height="1mm" /><rect x="45mm" y="25mm" width="1mm" height="1mm" /><rect x="46mm" y="25mm" width="1mm" height="1mm" /><rect x="6mm" y="26mm" width="1mm" height="1mm" /><rect x="9mm" y="26mm" width="1mm" height="1mm" /><rect x="11mm" y="26mm" width="1mm" height="1mm" /><rect x="12mm" y="26mm" width="1mm" height="1mm" /><rect x="13mm" y="26mm" width="1mm" height="1mm" /><rect x="15mm" y="26mm" width="1mm" height="1mm" /><rect x="17mm" y="26mm" width="1mm" height="1mm" /><rect x="18mm" y="26mm" width="1mm" height="1mm" /><rect x="19mm" y="26mm" width="1mm" height="1mm" /><rect x="20mm" y="26mm" width="1mm" height="1mm" /><rect x="21mm" y="26mm" width="1mm" height="1mm" /><rect x="22mm" y="26mm" width="1mm" height="1mm" /><rect x="23mm" y="26mm" width="1mm" height="1mm" /><rect x="24mm" y="26mm" width="1mm" height="1mm" /><rect x="25mm" y="26mm" width="1mm" height="1mm" /><rect x="26mm" y="26mm" width="1mm" height="1mm" /><rect x="28mm" y="26mm" width="1mm" height="1mm" /><rect x="32mm" y="26mm" width="1mm" height="1mm" /><rect x="35mm" y="26mm" width="1mm" height="1mm" /><rect x="37mm" y="26mm" width="1mm" height="1mm" /><rect x="39mm" y="26mm" width="1mm" height="1mm" /><rect x="41mm" y="26mm" width="1mm" height="1mm" /><rect x="43mm" y="26mm" width="1mm" height="1mm" /><rect x="6mm" y="27mm" width="1mm" height="1mm" /><rect x="7mm" y="27mm" width="1mm" height="1mm" /><rect x="8mm" y="27mm" width="1mm" height="1mm" /><rect x="10mm" y="27mm" width="1mm" height="1mm" /><rect x="11mm" y="27mm" width="1mm" height="1mm" /><rect x="13mm" y="27mm" width="1mm" height="1mm" /><rect x="16mm" y="27mm" width="1mm" height="1mm" /><rect x="17mm" y="27mm" width="1mm" height="1mm" /><rect x="21mm" y="27mm" width="1mm" height="1mm" /><rect x="22mm" y="27mm" width="1mm" height="1mm" /><rect x="23mm" y="27mm" width="1mm" height="1mm" /><rect x="25mm" y="27mm" width="1mm" height="1mm" /><rect x="29mm" y="27mm" width="1mm" height="1mm" /><rect x="31mm" y="27mm" width="1mm" height="1mm" /><rect x="33mm" y="27mm" width="1mm" height="1mm" /><rect x="34mm" y="27mm" width="1mm" height="1mm" /><rect x="36mm" y="27mm" width="1mm" height="1mm" /><rect x="40mm" y="27mm" width="1mm" height="1mm" /><rect x="42mm" y="27mm" width="1mm" height="1mm" /><rect x="43mm" y="27mm" width="1mm" height="1mm" /><rect x="46mm" y="27mm" width="1mm" height="1mm" /><rect x="7mm" y="28mm" width="1mm" height="1mm" /><rect x="8mm" y="28mm" width="1mm" height="1mm" /><rect x="9mm" y="28mm" width="1mm" height="1mm" /><rect x="10mm" y="28mm" width="1mm" height="1mm" /><rect x="12mm" y="28mm" width="1mm" height="1mm" /><rect x="15mm" y="28mm" width="1mm" height="1mm" /><rect x="17mm" y="28mm" width="1mm" height="1mm" /><rect x="21mm" y="28mm" width="1mm" height="1mm" /><rect x="23mm" y="28mm" width="1mm" height="1mm" /><rect x="27mm" y="28mm" width="1mm" height="1mm" /><rect x="28mm" y="28mm" width="1mm" height="1mm" /><rect x="29mm" y="28mm" width="1mm" height="1mm" /><rect x="30mm" y="28mm" width="1mm" height="1mm" /><rect x="31mm" y="28mm" width="1mm" height="1mm" /><rect x="33mm" y="28mm" width="1mm" height="1mm" /><rect x="38mm" y="28mm" width="1mm" height="1mm" /><rect x="39mm" y="28mm" width="1mm" height="1mm" /><rect x="41mm" y="28mm" width="1mm" height="1mm" /><rect x="46mm" y="28mm" width="1mm" height="1mm" /><rect x="6mm" y="29mm" width="1mm" height="1mm" /><rect x="8mm" y="29mm" width="1mm" height="1mm" /><rect x="10mm" y="29mm" width="1mm" height="1mm" /><rect x="11mm" y="29mm" width="1mm" height="1mm" /><rect x="13mm" y="29mm" width="1mm" height="1mm" /><rect x="20mm" y="29mm" width="1mm" height="1mm" /><rect x="21mm" y="29mm" width="1mm" height="1mm" /><rect x="23mm" y="29mm" width="1mm" height="1mm" /><rect x="26mm" y="29mm" width="1mm" height="1mm" /><rect x="32mm" y="29mm" width="1mm" height="1mm" /><rect x="33mm" y="29mm" width="1mm" height="1mm" /><rect x="35mm" y="29mm" width="1mm" height="1mm" /><rect x="36mm" y="29mm" width="1mm" height="1mm" /><rect x="37mm" y="29mm" width="1mm" height="1mm" /><rect x="38mm" y="29mm" width="1mm" height="1mm" /><rect x="40mm" y="29mm" width="1mm" height="1mm" /><rect x="41mm" y="29mm" width="1mm" height="1mm" /><rect x="42mm" y="29mm" width="1mm" height="1mm" /><rect x="45mm" y="29mm" width="1mm" height="1mm" /><rect x="9mm" y="30mm" width="1mm" height="1mm" /><rect x="12mm" y="30mm" width="1mm" height="1mm" /><rect x="15mm" y="30mm" width="1mm" height="1mm" /><rect x="19mm" y="30mm" width="1mm" height="1mm" /><rect x="21mm" y="30mm" width="1mm" height="1mm" /><rect x="22mm" y="30mm" width="1mm" height="1mm" /><rect x="23mm" y="30mm" width="1mm" height="1mm" /><rect x="26mm" y="30mm" width="1mm" height="1mm" /><rect x="27mm" y="30mm" width="1mm" height="1mm" /><rect x="28mm" y="30mm" width="1mm" height="1mm" /><rect x="35mm" y="30mm" width="1mm" height="1mm" /><rect x="38mm" y="30mm" width="1mm" height="1mm" /><rect x="39mm" y="30mm" width="1mm" height="1mm" /><rect x="41mm" y="30mm" width="1mm" height="1mm" /><rect x="46mm" y="30mm" width="1mm" height="1mm" /><rect x="8mm" y="31mm" width="1mm" height="1mm" /><rect x="9mm" y="31mm" width="1mm" height="1mm" /><rect x="10mm" y="31mm" width="1mm" height="1mm" /><rect x="11mm" y="31mm" width="1mm" height="1mm" /><rect x="13mm" y="31mm" width="1mm" height="1mm" /><rect x="15mm" y="31mm" width="1mm" height="1mm" /><rect x="16mm" y="31mm" width="1mm" height="1mm" /><rect x="19mm" y="31mm" width="1mm" height="1mm" /><rect x="20mm" y="31mm" width="1mm" height="1mm" /><rect x="22mm" y="31mm" width="1mm" height="1mm" /><rect x="24mm" y="31mm" width="1mm" height="1mm" /><rect x="25mm" y="31mm" width="1mm" height="1mm" /><rect x="27mm" y="31mm" width="1mm" height="1mm" /><rect x="29mm" y="31mm" width="1mm" height="1mm" /><rect x="30mm" y="31mm" width="1mm" height="1mm" /><rect x="31mm" y="31mm" width="1mm" height="1mm" /><rect x="33mm" y="31mm" width="1mm" height="1mm" /><rect x="34mm" y="31mm" width="1mm" height="1mm" /><rect x="35mm" y="31mm" width="1mm" height="1mm" /><rect x="36mm" y="31mm" width="1mm" height="1mm" /><rect x="40mm" y="31mm" width="1mm" height="1mm" /><rect x="42mm" y="31mm" width="1mm" height="1mm" /><rect x="44mm" y="31mm" width="1mm" height="1mm" /><rect x="46mm" y="31mm" width="1mm" height="1mm" /><rect x="6mm" y="32mm" width="1mm" height="1mm" /><rect x="7mm" y="32mm" width="1mm" height="1mm" /><rect x="11mm" y="32mm" width="1mm" height="1mm" /><rect x="12mm" y="32mm" width="1mm" height="1mm" /><rect x="14mm" y="32mm" width="1mm" height="1mm" /><rect x="15mm" y="32mm" width="1mm" height="1mm" /><rect x="17mm" y="32mm" width="1mm" height="1mm" /><rect x="18mm" y="32mm" width="1mm" height="1mm" /><rect x="19mm" y="32mm" width="1mm" height="1mm" /><rect x="20mm" y="32mm" width="1mm" height="1mm" /><rect x="21mm" y="32mm" width="1mm" height="1mm" /><rect x="24mm" y="32mm" width="1mm" height="1mm" /><rect x="25mm" y="32mm" width="1mm" height="1mm" /><rect x="26mm" y="32mm" width="1mm" height="1mm" /><rect x="29mm" y="32mm" width="1mm" height="1mm" /><rect x="31mm" y="32mm" width="1mm" height="1mm" /><rect x="33mm" y="32mm" width="1mm" height="1mm" /><rect x="34mm" y="32mm" width="1mm" height="1mm" /><rect x="36mm" y="32mm" width="1mm" height="1mm" /><rect x="38mm" y="32mm" width="1mm" height="1mm" /><rect x="45mm" y="32mm" width="1mm" height="1mm" /><rect x="46mm" y="32mm" width="1mm" height="1mm" /><rect x="6mm" y="33mm" width="1mm" height="1mm" /><rect x="7mm" y="33mm" width="1mm" height="1mm" /><rect x="8mm" y="33mm" width="1mm" height="1mm" /><rect x="9mm" y="33mm" width="1mm" height="1mm" /><rect x="10mm" y="33mm" width="1mm" height="1mm" /><rect x="15mm" y="33mm" width="1mm" height="1mm" /><rect x="16mm" y="33mm" width="1mm" height="1mm" /><rect x="17mm" y="33mm" width="1mm" height="1mm" /><rect x="18mm" y="33mm" width="1mm" height="1mm" /><rect x="19mm" y="33mm" width="1mm" height="1mm" /><rect x="20mm" y="33mm" width="1mm" height="1mm" /><rect x="22mm" y="33mm" width="1mm" height="1mm" /><rect x="23mm" y="33mm" width="1mm" height="1mm" /><rect x="28mm" y="33mm" width="1mm" height="1mm" /><rect x="33mm" y="33mm" width="1mm" height="1mm" /><rect x="35mm" y="33mm" width="1mm" height="1mm" /><rect x="36mm" y="33mm" width="1mm" height="1mm" /><rect x="37mm" y="33mm" width="1mm" height="1mm" /><rect x="38mm" y="33mm" width="1mm" height="1mm" /><rect x="40mm" y="33mm" width="1mm" height="1mm" /><rect x="41mm" y="33mm" width="1mm" height="1mm" /><rect x="42mm" y="33mm" width="1mm" height="1mm" /><rect x="43mm" y="33mm" width="1mm" height="1mm" /><rect x="45mm" y="33mm" width="1mm" height="1mm" /><rect x="6mm" y="34mm" width="1mm" height="1mm" /><rect x="11mm" y="34mm" width="1mm" height="1mm" /><rect x="12mm" y="34mm" width="1mm" height="1mm" /><rect x="13mm" y="34mm" width="1mm" height="1mm" /><rect x="15mm" y="34mm" width="1mm" height="1mm" /><rect x="18mm" y="34mm" width="1mm" height="1mm" /><rect x="22mm" y="34mm" width="1mm" height="1mm" /><rect x="23mm" y="34mm" width="1mm" height="1mm" /><rect x="24mm" y="34mm" width="1mm" height="1mm" /><rect x="25mm" y="34mm" width="1mm" height="1mm" /><rect x="26mm" y="34mm" width="1mm" height="1mm" /><rect x="29mm" y="34mm" width="1mm" height="1mm" /><rect x="33mm" y="34mm" width="1mm" height="1mm" /><rect x="34mm" y="34mm" width="1mm" height="1mm" /><rect x="35mm" y="34mm" width="1mm" height="1mm" /><rect x="39mm" y="34mm" width="1mm" height="1mm" /><rect x="6mm" y="35mm" width="1mm" height="1mm" /><rect x="7mm" y="35mm" width="1mm" height="1mm" /><rect x="8mm" y="35mm" width="1mm" height="1mm" /><rect x="9mm" y="35mm" width="1mm" height="1mm" /><rect x="11mm" y="35mm" width="1mm" height="1mm" /><rect x="13mm" y="35mm" width="1mm" height="1mm" /><rect x="15mm" y="35mm" width="1mm" height="1mm" /><rect x="16mm" y="35mm" width="1mm" height="1mm" /><rect x="20mm" y="35mm" width="1mm" height="1mm" /><rect x="21mm" y="35mm" width="1mm" height="1mm" /><rect x="22mm" y="35mm" width="1mm" height="1mm" /><rect x="28mm" y="35mm" width="1mm" height="1mm" /><rect x="29mm" y="35mm" width="1mm" height="1mm" /><rect x="30mm" y="35mm" width="1mm" height="1mm" /><rect x="31mm" y="35mm" width="1mm" height="1mm" /><rect x="32mm" y="35mm" width="1mm" height="1mm" /><rect x="33mm" y="35mm" width="1mm" height="1mm" /><rect x="35mm" y="35mm" width="1mm" height="1mm" /><rect x="38mm" y="35mm" width="1mm" height="1mm" /><rect x="40mm" y="35mm" width="1mm" height="1mm" /><rect x="41mm" y="35mm" width="1mm" height="1mm" /><rect x="42mm" y="35mm" width="1mm" height="1mm" /><rect x="43mm" y="35mm" width="1mm" height="1mm" /><rect x="44mm" y="35mm" width="1mm" height="1mm" /><rect x="46mm" y="35mm" width="1mm" height="1mm" /><rect x="9mm" y="36mm" width="1mm" height="1mm" /><rect x="10mm" y="36mm" width="1mm" height="1mm" /><rect x="11mm" y="36mm" width="1mm" height="1mm" /><rect x="12mm" y="36mm" width="1mm" height="1mm" /><rect x="13mm" y="36mm" width="1mm" height="1mm" /><rect x="16mm" y="36mm" width="1mm" height="1mm" /><rect x="17mm" y="36mm" width="1mm" height="1mm" /><rect x="19mm" y="36mm" width="1mm" height="1mm" /><rect x="21mm" y="36mm" width="1mm" height="1mm" /><rect x="24mm" y="36mm" width="1mm" height="1mm" /><rect x="26mm" y="36mm" width="1mm" height="1mm" /><rect x="27mm" y="36mm" width="1mm" height="1mm" /><rect x="28mm" y="36mm" width="1mm" height="1mm" /><rect x="29mm" y="36mm" width="1mm" height="1mm" /><rect x="32mm" y="36mm" width="1mm" height="1mm" /><rect x="33mm" y="36mm" width="1mm" height="1mm" /><rect x="34mm" y="36mm" width="1mm" height="1mm" /><rect x="35mm" y="36mm" width="1mm" height="1mm" /><rect x="38mm" y="36mm" width="1mm" height="1mm" /><rect x="42mm" y="36mm" width="1mm" height="1mm" /><rect x="45mm" y="36mm" width="1mm" height="1mm" /><rect x="46mm" y="36mm" width="1mm" height="1mm" /><rect x="9mm" y="37mm" width="1mm" height="1mm" /><rect x="10mm" y="37mm" width="1mm" height="1mm" /><rect x="13mm" y="37mm" width="1mm" height="1mm" /><rect x="17mm" y="37mm" width="1mm" height="1mm" /><rect x="18mm" y="37mm" width="1mm" height="1mm" /><rect x="19mm" y="37mm" width="1mm" height="1mm" /><rect x="22mm" y="37mm" width="1mm" height="1mm" /><rect x="24mm" y="37mm" width="1mm" height="1mm" /><rect x="26mm" y="37mm" width="1mm" height="1mm" /><rect x="34mm" y="37mm" width="1mm" height="1mm" /><rect x="35mm" y="37mm" width="1mm" height="1mm" /><rect x="36mm" y="37mm" width="1mm" height="1mm" /><rect x="38mm" y="37mm" width="1mm" height="1mm" /><rect x="42mm" y="37mm" width="1mm" height="1mm" /><rect x="45mm" y="37mm" width="1mm" height="1mm" /><rect x="46mm" y="37mm" width="1mm" height="1mm" /><rect x="6mm" y="38mm" width="1mm" height="1mm" /><rect x="7mm" y="38mm" width="1mm" height="1mm" /><rect x="8mm" y="38mm" width="1mm" height="1mm" /><rect x="10mm" y="38mm" width="1mm" height="1mm" /><rect x="12mm" y="38mm" width="1mm" height="1mm" /><rect x="13mm" y="38mm" width="1mm" height="1mm" /><rect x="16mm" y="38mm" width="1mm" height="1mm" /><rect x="18mm" y="38mm" width="1mm" height="1mm" /><rect x="21mm" y="38mm" width="1mm" height="1mm" /><rect x="22mm" y="38mm" width="1mm" height="1mm" /><rect x="23mm" y="38mm" width="1mm" height="1mm" /><rect x="27mm" y="38mm" width="1mm" height="1mm" /><rect x="28mm" y="38mm" width="1mm" height="1mm" /><rect x="30mm" y="38mm" width="1mm" height="1mm" /><rect x="32mm" y="38mm" width="1mm" height="1mm" /><rect x="34mm" y="38mm" width="1mm" height="1mm" /><rect x="35mm" y="38mm" width="1mm" height="1mm" /><rect x="37mm" y="38mm" width="1mm" height="1mm" /><rect x="38mm" y="38mm" width="1mm" height="1mm" /><rect x="39mm" y="38mm" width="1mm" height="1mm" /><rect x="40mm" y="38mm" width="1mm" height="1mm" /><rect x="41mm" y="38mm" width="1mm" height="1mm" /><rect x="42mm" y="38mm" width="1mm" height="1mm" /><rect x="43mm" y="38mm" width="1mm" height="1mm" /><rect x="45mm" y="38mm" width="1mm" height="1mm" /><rect x="14mm" y="39mm" width="1mm" height="1mm" /><rect x="15mm" y="39mm" width="1mm" height="1mm" /><rect x="16mm" y="39mm" width="1mm" height="1mm" /><rect x="17mm" y="39mm" width="1mm" height="1mm" /><rect x="19mm" y="39mm" width="1mm" height="1mm" /><rect x="20mm" y="39mm" width="1mm" height="1mm" /><rect x="22mm" y="39mm" width="1mm" height="1mm" /><rect x="23mm" y="39mm" width="1mm" height="1mm" /><rect x="24mm" y="39mm" width="1mm" height="1mm" /><rect x="25mm" y="39mm" width="1mm" height="1mm" /><rect x="27mm" y="39mm" width="1mm" height="1mm" /><rect x="29mm" y="39mm" width="1mm" height="1mm" /><rect x="31mm" y="39mm" width="1mm" height="1mm" /><rect x="33mm" y="39mm" width="1mm" height="1mm" /><rect x="36mm" y="39mm" width="1mm" height="1mm" /><rect x="38mm" y="39mm" width="1mm" height="1mm" /><rect x="42mm" y="39mm" width="1mm" height="1mm" /><rect x="44mm" y="39mm" width="1mm" height="1mm" /><rect x="45mm" y="39mm" width="1mm" height="1mm" /><rect x="46mm" y="39mm" width="1mm" height="1mm" /><rect x="6mm" y="40mm" width="1mm" height="1mm" /><rect x="7mm" y="40mm" width="1mm" height="1mm" /><rect x="8mm" y="40mm" width="1mm" height="1mm" /><rect x="9mm" y="40mm" width="1mm" height="1mm" /><rect x="10mm" y="40mm" width="1mm" height="1mm" /><rect x="11mm" y="40mm" width="1mm" height="1mm" /><rect x="12mm" y="40mm" width="1mm" height="1mm" /><rect x="17mm" y="40mm" width="1mm" height="1mm" /><rect x="19mm" y="40mm" width="1mm" height="1mm" /><rect x="20mm" y="40mm" width="1mm" height="1mm" /><rect x="21mm" y="40mm" width="1mm" height="1mm" /><rect x="22mm" y="40mm" width="1mm" height="1mm" /><rect x="26mm" y="40mm" width="1mm" height="1mm" /><rect x="29mm" y="40mm" width="1mm" height="1mm" /><rect x="31mm" y="40mm" width="1mm" height="1mm" /><rect x="32mm" y="40mm" width="1mm" height="1mm" /><rect x="33mm" y="40mm" width="1mm" height="1mm" /><rect x="35mm" y="40mm" width="1mm" height="1mm" /><rect x="36mm" y="40mm" width="1mm" height="1mm" /><rect x="37mm" y="40mm" width="1mm" height="1mm" /><rect x="38mm" y="40mm" width="1mm" height="1mm" /><rect x="40mm" y="40mm" width="1mm" height="1mm" /><rect x="42mm" y="40mm" width="1mm" height="1mm" /><rect x="45mm" y="40mm" width="1mm" height="1mm" /><rect x="46mm" y="40mm" width="1mm" height="1mm" /><rect x="6mm" y="41mm" width="1mm" height="1mm" /><rect x="12mm" y="41mm" width="1mm" height="1mm" /><rect x="16mm" y="41mm" width="1mm" height="1mm" /><rect x="18mm" y="41mm" width="1mm" height="1mm" /><rect x="20mm" y="41mm" width="1mm" height="1mm" /><rect x="21mm" y="41mm" width="1mm" height="1mm" /><rect x="22mm" y="41mm" width="1mm" height="1mm" /><rect x="24mm" y="41mm" width="1mm" height="1mm" /><rect x="26mm" y="41mm" width="1mm" height="1mm" /><rect x="28mm" y="41mm" width="1mm" height="1mm" /><rect x="29mm" y="41mm" width="1mm" height="1mm" /><rect x="32mm" y="41mm" width="1mm" height="1mm" /><rect x="34mm" y="41mm" width="1mm" height="1mm" /><rect x="35mm" y="41mm" width="1mm" height="1mm" /><rect x="36mm" y="41mm" width="1mm" height="1mm" /><rect x="38mm" y="41mm" width="1mm" height="1mm" /><rect x="42mm" y="41mm" width="1mm" height="1mm" /><rect x="46mm" y="41mm" width="1mm" height="1mm" /><rect x="6mm" y="42mm" width="1mm" height="1mm" /><rect x="8mm" y="42mm" width="1mm" height="1mm" /><rect x="9mm" y="42mm" width="1mm" height="1mm" /><rect x="10mm" y="42mm" width="1mm" height="1mm" /><rect x="12mm" y="42mm" width="1mm" height="1mm" /><rect x="14mm" y="42mm" width="1mm" height="1mm" /><rect x="15mm" y="42mm" width="1mm" height="1mm" /><rect x="16mm" y="42mm" width="1mm" height="1mm" /><rect x="18mm" y="42mm" width="1mm" height="1mm" /><rect x="19mm" y="42mm" width="1mm" height="1mm" /><rect x="20mm" y="42mm" width="1mm" height="1mm" /><rect x="24mm" y="42mm" width="1mm" height="1mm" /><rect x="25mm" y="42mm" width="1mm" height="1mm" /><rect x="28mm" y="42mm" width="1mm" height="1mm" /><rect x="29mm" y="42mm" width="1mm" height="1mm" /><rect x="30mm" y="42mm" width="1mm" height="1mm" /><rect x="32mm" y="42mm" width="1mm" height="1mm" /><rect x="35mm" y="42mm" width="1mm" height="1mm" /><rect x="37mm" y="42mm" width="1mm" height="1mm" /><rect x="38mm" y="42mm" width="1mm" height="1mm" /><rect x="39mm" y="42mm" width="1mm" height="1mm" /><rect x="40mm" y="42mm" width="1mm" height="1mm" /><rect x="41mm" y="42mm" width="1mm" height="1mm" /><rect x="42mm" y="42mm" width="1mm" height="1mm" /><rect x="45mm" y="42mm" width="1mm" height="1mm" /><rect x="6mm" y="43mm" width="1mm" height="1mm" /><rect x="8mm" y="43mm" width="1mm" height="1mm" /><rect x="9mm" y="43mm" width="1mm" height="1mm" /><rect x="10mm" y="43mm" width="1mm" height="1mm" /><rect x="12mm" y="43mm" width="1mm" height="1mm" /><rect x="15mm" y="43mm" width="1mm" height="1mm" /><rect x="16mm" y="43mm" width="1mm" height="1mm" /><rect x="17mm" y="43mm" width="1mm" height="1mm" /><rect x="19mm" y="43mm" width="1mm" height="1mm" /><rect x="23mm" y="43mm" width="1mm" height="1mm" /><rect x="27mm" y="43mm" width="1mm" height="1mm" /><rect x="28mm" y="43mm" width="1mm" height="1mm" /><rect x="29mm" y="43mm" width="1mm" height="1mm" /><rect x="31mm" y="43mm" width="1mm" height="1mm" /><rect x="33mm" y="43mm" width="1mm" height="1mm" /><rect x="34mm" y="43mm" width="1mm" height="1mm" /><rect x="36mm" y="43mm" width="1mm" height="1mm" /><rect x="38mm" y="43mm" width="1mm" height="1mm" /><rect x="41mm" y="43mm" width="1mm" height="1mm" /><rect x="44mm" y="43mm" width="1mm" height="1mm" /><rect x="6mm" y="44mm" width="1mm" height="1mm" /><rect x="8mm" y="44mm" width="1mm" height="1mm" /><rect x="9mm" y="44mm" width="1mm" height="1mm" /><rect x="10mm" y="44mm" width="1mm" height="1mm" /><rect x="12mm" y="44mm" width="1mm" height="1mm" /><rect x="15mm" y="44mm" width="1mm" height="1mm" /><rect x="17mm" y="44mm" width="1mm" height="1mm" /><rect x="18mm" y="44mm" width="1mm" height="1mm" /><rect x="21mm" y="44mm" width="1mm" height="1mm" /><rect x="24mm" y="44mm" width="1mm" height="1mm" /><rect x="25mm" y="44mm" width="1mm" height="1mm" /><rect x="27mm" y="44mm" width="1mm" height="1mm" /><rect x="28mm" y="44mm" width="1mm" height="1mm" /><rect x="29mm" y="44mm" width="1mm" height="1mm" /><rect x="30mm" y="44mm" width="1mm" height="1mm" /><rect x="32mm" y="44mm" width="1mm" height="1mm" /><rect x="33mm" y="44mm" width="1mm" height="1mm" /><rect x="34mm" y="44mm" width="1mm" height="1mm" /><rect x="35mm" y="44mm" width="1mm" height="1mm" /><rect x="37mm" y="44mm" width="1mm" height="1mm" /><rect x="39mm" y="44mm" width="1mm" height="1mm" /><rect x="44mm" y="44mm" width="1mm" height="1mm" /><rect x="46mm" y="44mm" width="1mm" height="1mm" /><rect x="6mm" y="45mm" width="1mm" height="1mm" /><rect x="12mm" y="45mm" width="1mm" height="1mm" /><rect x="14mm" y="45mm" width="1mm" height="1mm" /><rect x="17mm" y="45mm" width="1mm" height="1mm" /><rect x="20mm" y="45mm" width="1mm" height="1mm" /><rect x="21mm" y="45mm" width="1mm" height="1mm" /><rect x="22mm" y="45mm" width="1mm" height="1mm" /><rect x="24mm" y="45mm" width="1mm" height="1mm" /><rect x="26mm" y="45mm" width="1mm" height="1mm" /><rect x="28mm" y="45mm" width="1mm" height="1mm" /><rect x="29mm" y="45mm" width="1mm" height="1mm" /><rect x="30mm" y="45mm" width="1mm" height="1mm" /><rect x="34mm" y="45mm" width="1mm" height="1mm" /><rect x="35mm" y="45mm" width="1mm" height="1mm" /><rect x="36mm" y="45mm" width="1mm" height="1mm" /><rect x="38mm" y="45mm" width="1mm" height="1mm" /><rect x="39mm" y="45mm" width="1mm" height="1mm" /><rect x="41mm" y="45mm" width="1mm" height="1mm" /><rect x="45mm" y="45mm" width="1mm" height="1mm" /><rect x="46mm" y="45mm" width="1mm" height="1mm" /><rect x="6mm" y="46mm" width="1mm" height="1mm" /><rect x="7mm" y="46mm" width="1mm" height="1mm" /><rect x="8mm" y="46mm" width="1mm" height="1mm" /><rect x="9mm" y="46mm" width="1mm" height="1mm" /><rect x="10mm" y="46mm" width="1mm" height="1mm" /><rect x="11mm" y="46mm" width="1mm" height="1mm" /><rect x="12mm" y="46mm" width="1mm" height="1mm" /><rect x="16mm" y="46mm" width="1mm" height="1mm" /><rect x="18mm" y="46mm" width="1mm" height="1mm" /><rect x="20mm" y="46mm" width="1mm" height="1mm" /><rect x="21mm" y="46mm" width="1mm" height="1mm" /><rect x="24mm" y="46mm" width="1mm" height="1mm" /><rect x="27mm" y="46mm" width="1mm" height="1mm" /><rect x="32mm" y="46mm" width="1mm" height="1mm" /><rect x="35mm" y="46mm" width="1mm" height="1mm" /><rect x="37mm" y="46mm" width="1mm" height="1mm" /><rect x="38mm" y="46mm" width="1mm" height="1mm" /><rect x="39mm" y="46mm" width="1mm" height="1mm" /><rect x="41mm" y="46mm" width="1mm" height="1mm" /><rect x="42mm" y="46mm" width="1mm" height="1mm" /><rect x="45mm" y="46mm" width="1mm" height="1mm" /></svg>